# xmcd CD database file
#
# Track frame offsets:
#	150
#	28628
#	56242
#	76908
#	104576
#	129186
#	156827
#	190410
#	217473
#	238170
#	252010
#	273256
#
# Disc length: 3943 seconds
#
# Revision: 0
# Processed by: cddbd v1.4PL0 Copyright (c) Steve Scherf et al.
# Submitted via: CDex 1.50Beta7
#
DISCID=ad0f650c
DTITLE=Rodney Whitaker - Yesterday, Today and Tommarow
DYEAR=1999
DGENRE=Jazz
TTITLE0=Happier Times
TTITLE1=Visions Of The Past
TTITLE2=Taylor Made
TTITLE3=Mood Indigo
TTITLE4=Ladies Vanity
TTITLE5=Woman Child
TTITLE6=You And Me
TTITLE7=Darrianne Niles
TTITLE8=Hurricane Andrew
TTITLE9=Unconditional Love
TTITLE10=Happier Times (Reprise)
TTITLE11=Tetragon
EXTD=YEAR: 1999
EXTT0=
EXTT1=
EXTT2=
EXTT3=
EXTT4=
EXTT5=
EXTT6=
EXTT7=
EXTT8=
EXTT9=
EXTT10=
EXTT11=
PLAYORDER=
